<?xml version="1.0" standalone="no"?>
<!DOCTYPE svg PUBLIC "-//W3C//DTD SVG 20010904//EN"
 "http://www.w3.org/TR/2001/REC-SVG-20010904/DTD/svg10.dtd">
<svg version="1.0" xmlns="http://www.w3.org/2000/svg"
 width="190.000000pt" height="233.000000pt" viewBox="0 0 190.000000 233.000000"
 preserveAspectRatio="xMidYMid meet">
<metadata>
Created by potrace 1.11, written by Peter Selinger 2001-2013
</metadata>
<g transform="translate(0.000000,233.000000) scale(0.100000,-0.100000)"
fill="#FF9A00" stroke="none">
<path d="M1617 2188 c-52 -79 -112 -165 -134 -193 -22 -27 -90 -117 -153 -200
-221 -293 -423 -512 -617 -667 -62 -49 -113 -96 -113 -104 0 -8 13 -32 29 -55
92 -126 73 -246 -59 -380 -97 -99 -175 -132 -260 -109 -98 26 -130 112 -66
176 39 39 70 43 103 12 29 -27 49 -18 77 33 16 29 17 40 7 77 -10 36 -19 46
-48 59 -48 20 -90 11 -155 -34 -72 -48 -132 -73 -178 -73 -21 0 -42 -4 -45
-10 -3 -5 8 -36 25 -67 16 -32 89 -179 162 -328 126 -260 162 -325 176 -325 4
0 16 21 26 47 11 25 39 68 62 95 24 26 51 62 60 80 20 39 14 96 -15 137 -26
36 -27 55 -3 48 176 -56 265 -49 379 30 61 42 143 127 143 149 0 19 -36 18
-101 -5 -63 -21 -190 -39 -174 -23 6 5 39 17 75 27 94 25 218 77 292 121 125
75 338 277 338 321 0 31 -78 1 -166 -63 -55 -40 -331 -184 -381 -199 -53 -15
-16 17 75 65 53 29 106 60 117 69 11 9 47 34 80 56 185 118 468 356 538 453
36 48 67 110 67 132 0 5 -10 10 -23 10 -26 0 -132 -72 -302 -204 -159 -123
-454 -347 -494 -374 -69 -47 -38 -12 66 74 486 400 703 619 837 841 39 65 46
121 18 131 -8 2 -154 -135 -345 -325 -183 -181 -368 -361 -412 -399 -132 -116
-247 -206 -254 -199 -3 4 8 18 24 31 67 56 408 387 518 504 120 127 237 278
282 362 69 129 87 338 30 338 -8 0 -57 -64 -108 -142z m110 25 c-13 -198 -106
-340 -452 -691 -104 -107 -245 -244 -312 -305 -68 -61 -123 -116 -123 -123 0
-6 7 -17 15 -24 13 -11 21 -9 50 11 81 58 402 356 673 623 160 159 295 287
298 283 12 -12 -46 -118 -118 -214 -101 -135 -272 -309 -468 -476 -91 -77
-188 -161 -215 -186 -28 -25 -81 -72 -119 -105 -61 -53 -66 -60 -52 -74 14
-14 20 -12 68 20 30 19 102 73 162 119 272 211 592 449 603 449 17 0 -5 -44
-55 -114 -87 -119 -450 -403 -687 -537 -110 -62 -149 -97 -134 -116 6 -7 22
-13 35 -13 30 0 261 118 404 205 58 35 109 65 113 65 17 0 -30 -64 -78 -108
-137 -124 -320 -233 -456 -272 -130 -38 -137 -40 -149 -55 -10 -13 -9 -19 6
-36 22 -24 53 -22 167 12 38 11 73 19 79 17 26 -9 -67 -90 -149 -130 -75 -37
-92 -42 -151 -41 -39 0 -94 9 -132 21 -65 21 -65 21 -85 2 -18 -18 -18 -23 -6
-43 51 -80 53 -115 11 -178 -50 -75 -101 -144 -109 -147 -3 -1 -25 35 -48 80
-84 168 -273 556 -273 560 0 3 17 8 37 11 39 7 85 29 170 82 59 37 126 41 149
11 16 -23 18 -69 4 -97 -14 -24 -24 -24 -60 2 -38 29 -67 20 -119 -36 -50 -54
-54 -91 -15 -142 63 -82 160 -98 265 -41 73 38 174 143 213 220 25 49 28 65
24 126 -3 60 -9 77 -41 126 -20 30 -37 61 -37 68 0 7 20 28 44 46 151 113 502
483 663 698 61 82 139 185 172 229 33 44 95 131 136 193 41 61 78 112 81 112
4 0 4 -39 1 -87z"/>
</g>
</svg>
